<svg xmlns="http://www.w3.org/2000/svg" xmlns:xlink="http://www.w3.org/1999/xlink" xmlns:lucid="lucid" width="1180" height="629"><g transform="translate(-280 -140)" lucid:page-tab-id="0_0"><path d="M0 0h1870.87v1322.83H0z" fill="#fff"/><path d="M500 486c0-3.3 2.7-6 6-6h168c3.3 0 6 2.7 6 6v36.67c0 3.3-2.7 6-6 6H506c-3.3 0-6-2.7-6-6z" fill="none"/><use xlink:href="#a" transform="matrix(1,0,0,1,500,480) translate(10.925925925925938 29.833333333333332)"/><use xlink:href="#b" transform="matrix(1,0,0,1,500,480) translate(105.59259259259258 29.833333333333332)"/><path d="M410.74 360h-91.28c-10.64 0-19.46 9.76-19.46 21.44v117.12c0 11.84 8.82 21.44 19.46 21.44h101.08c10.78 0 19.46-9.76 19.46-21.44V391.68L410.74 360zm17.22 138.56c0 4.64-3.22 8.16-7.42 8.16H319.46c-4.2 0-7.42-3.52-7.42-8.16V381.44c0-4.64 3.22-8.16 7.42-8.16h85.4v25.6h23.1v99.68z" stroke="#000" stroke-opacity="0" fill="#2a3282"/><path d="M342.14 415.2v10.72c0 6.24-2.24 9.28-6.44 9.28v8.64c4.62 0 6.44 3.04 6.44 8.64v11.84c0 6.24 1.4 10.24 3.78 12.8 2.66 3.68 7.42 5.12 14.28 5.12v-9.12c-2.24 0-4.2-.64-5.6-2.08-.84-1.6-1.82-3.52-1.82-6.56v-9.76c.56-7.68-1.82-12.8-6.02-14.88 4.62-1.92 6.58-6.56 6.58-14.24v-10.24c0-5.76 2.24-8.32 6.86-8.32v-9.12c-6.86 0-11.62 1.6-14.28 4.64-2.38 1.92-3.78 6.56-3.78 12.64zM393.24 425.92v-11.2c0-6.24-1.4-10.24-3.64-13.28-2.8-2.56-7.56-4.16-14.42-4.16v9.28c4.62 0 6.86 2.56 6.86 8.16v9.76c0 8.16 2.38 13.28 6.58 15.36-4.62 2.08-6.58 6.56-6.58 14.4v10.24c0 3.04-.42 5.12-1.4 6.56-1.4 1.6-2.66 2.08-5.6 2.08v9.12c7 0 11.62-1.44 14.42-4.64 2.38-2.56 3.64-7.2 3.64-13.28v-11.2c0-6.08 2.38-9.12 6.58-9.12v-8.8c-4.2 0-6.44-3.04-6.44-9.28z" stroke="#000" stroke-opacity="0" fill="#2a3282"/><use xlink:href="#c" transform="matrix(1,0,0,1,270,529) translate(37.68518518518519 17.77777777777778)"/><use xlink:href="#d" transform="matrix(1,0,0,1,270,529) translate(114.16666666666667 17.77777777777778)"/><path d="M823.14 620l-85.92-85.98-47.3 47.34-8.23-8.3 51.33-51.45c2.4-2.3 6-2.3 8.38 0l89.97 90.2z" stroke="#fff" stroke-opacity="0" fill="#d86613"/><path d="M915.38 571.33l-66.5-66.5-65 65.2-8.3-8.2 69.3-69.4c2.23-2.27 5.93-2.27 8.15 0l70.64 70.68zM780.25 511.96c-15.1.06-27.34-12.2-27.4-27.32-.05-15.1 12.2-27.37 27.3-27.43 15.08-.04 27.33 12.22 27.38 27.33v.1c-.05 15.07-12.25 27.28-27.28 27.33zm0-42.97h-.06c-8.65 0-15.65 7-15.65 15.64 0 8.65 7 15.66 15.64 15.66 8.63 0 15.63-7 15.63-15.66 0-8.65-6.94-15.65-15.58-15.65z" stroke="#fff" stroke-opacity="0" fill="#d86613"/><path d="M917.54 640h-231.7c-3.16 0-5.84-2.68-5.84-5.85V402.17c0-3.16 2.68-5.84 5.84-5.84h231.7c3.17 0 5.84 2.68 5.84 5.84v231.98c0 3.17-2.67 5.85-5.84 5.85zm-225.86-11.7H911.7V408.02H691.68z" stroke="#fff" stroke-opacity="0" fill="#d86613"/><use xlink:href="#e" transform="matrix(1,0,0,1,650,649) translate(70.02469135802468 17.77777777777778)"/><use xlink:href="#f" transform="matrix(1,0,0,1,650,649) translate(172.30864197530866 17.77777777777778)"/><g opacity=".54"><path d="M390.38 222.56h-13.9c-9.32-2.25-16.48-9.38-16.48-18.52 0-7.82 5.1-14.76 12.26-17.45 0-.9-.18-1.58-.18-2.45 0-13.45 11.14-24.15 25.03-24.15 7.7 0 14.6 3.38 19.52 8.95 2.76-1.38 6.04-2 9.06-2 10.88 0 20.37 9.38 20.63 19.64l-37.36-14.78-18.56 10.95v39.8z" stroke="#000" stroke-opacity="0" fill="#59b4d9" fill-opacity=".43"/><path d="M460 232.4l-51.28 9.38.26-34.63L460 216.3v16.1zm-51.28-56.1L460 194.85v18.8l-51.02-10.5" stroke="#000" stroke-opacity="0" fill="#959595"/><path d="M408.94 203.12l-13.9 6.24V184.6l13.9-8.07m48.74 34.85l-46.42-10.27V179l46.42 16.5v15.88zm-25.5-8l4.64 1.07v-14.5l-4.64-1.57v15zm-4.63-16.13l-4.7-1.58v15.44l4.7 1.33v-15.18zm13.9 18.58l4.64 1.07v-13.86l-4.65-1.5v14.3zm-27.87-7.18l4.63 1.13V183.9l-4.62-1.57v16.32zm41.78-2.46l-4.63-1.58v13.42l4.63 1.13V196.2zm-44.1 14.74v28.6l46.42-8.25V217.6l-46.42-6.68zm2.32 25.26v-22.1l4.63.43v20.8l-4.62.87zm13.97-2.27l-4.7.95V215.4l4.7.7v17.83zm4.63-.63v-17l4.64.43v15.7l-4.64.87zm13.9-2.45l-4.63.63v-14.3l4.64.7v12.97zm9.53-1.4l-4.87.7v-11.6l4.38.45.5 10.46z" stroke="#000" stroke-opacity="0" fill="#b3b4b5"/><path d="M399.67 202.67l-2.32 1.35v-17.66l2.32-1.1v17.4zm4.65-20.1l-2.32 1.56v17.2l2.32-1.1v-17.66z" stroke="#000" stroke-opacity="0" fill="#959595"/><path d="M395.03 233.95v-20.32l13.93-6.5V242" stroke="#000" stroke-opacity="0" fill="#b3b4b5"/><path d="M399.44 233.95l-2.1-1.12v-17.2l2.1-.9v19.22zm4.88-21.44l-2.32 1.13v21.66l2.32 1.1v-23.9z" stroke="#000" stroke-opacity="0" fill="#959595"/><path d="M455.36 197.76l-41.76-13.4v-1.8l41.76 13.87v1.33zm-.23 21.23l-41.53-4.94v1.78l41.53 4.7V219zm-50.8-34.2v-2.23l-6.74 3.57v1.78l6.72-3.1zM397.34 217l6.97-2.47v-1.77l-6.97 2.92v1.33z" stroke="#000" stroke-opacity="0" fill="#7a7a7a"/><path d="M460 195.06v37.3l-51.04 9.42 38.74-51.4 12.3 4.68z" stroke="#000" stroke-opacity="0" fill="#fff" fill-opacity=".2"/><path d="M408.1 239.26l-10.7-6.44-.78-12.27H377.1l-11.77-8.26-3.35-8.87 7-11.5 6.5-5.08 3.34-15.38 10.24-7.73 11.87-.22 11.68 5.3 3.36 3.1 11.48-2.27 8.8 3.33 5.46 6.14 3.25 5.45.77 6.37 11.96 4.62v35.74z" stroke="#000" stroke-opacity="0" stroke-width="0" fill-opacity="0"/><use xlink:href="#g" transform="matrix(1,0,0,1,330,251) translate(31.944444444444436 17.77777777777778)"/><use xlink:href="#h" transform="matrix(1,0,0,1,330,251) translate(30.740740740740733 44.44444444444444)"/></g><path d="M1432.86 628.82h-325.72c-3.74 0-7.14-3.27-7.14-7.2V418c0-3.94 3.4-7.2 7.14-7.2h325.72c3.74 0 7.14 3.26 7.14 7.2V621.6c0 3.93-3.4 7.2-7.14 7.2zm-318.24-14.4h310.76V425.2h-310.76z" stroke="#fff" stroke-opacity="0" fill="#d86613"/><path d="M1140.73 445.18h14.47V594.5h-14.47V445.2zM1181.38 445.18h14.47V594.5h-14.47V445.2zM1222.1 445.18h14.48V594.5h-14.47V445.2zM1262.77 445.18h14.46V594.5h-14.46V445.2zM1303.5 445.18h14.46V594.5h-14.47V445.2zM1344.15 445.18h14.47V594.5h-14.47V445.2zM1384.88 445.18h14.46V594.5h-14.46V445.2z" stroke="#fff" stroke-opacity="0" fill="#d86613"/><use xlink:href="#i" transform="matrix(1,0,0,1,1070,637.8190802239895) translate(151.94444444444443 17.77777777777778)"/><path d="M924.38 518.16h157.12" stroke="#5e5e5e" stroke-width="2" fill="none"/><path d="M924.4 519.16h-1.02v-2h1.03z" fill="#5e5e5e"/><path d="M1096.76 518.16l-14.26 4.64v-9.27z" stroke="#5e5e5e" stroke-width="2" fill="#5e5e5e"/><g opacity=".51"><path d="M461 201h4m7.96 0h7.97m7.97 0h7.98m7.97 0h7.97m7.97 0h7.96m7.98 0h7.97m7.98 0h7.97m7.98 0h7.97m7.97 0h7.97m7.98 0h7.97m7.96 0h7.97m7.97 0h7.98m7.97 0h7.97m7.97 0h7.97m7.97 0h7.97m7.98 0h7.98m7.97 0h7.97m7.97 0h7.98m7.97 0H752m7.96 0h7.97m7.98 0h7.98m7.97 0h4l3.02.82 2.15 2.15.82 3.03v3.88m0 7.77v7.76m0 7.78v7.76m0 7.77v7.77m0 7.77V273m0 7.76v7.77m0 7.76v7.76m0 7.76v7.77m0 7.75v7.77m0 7.76v7.77m0 7.76v7.78m0 7.76v3.88" stroke="#5e5e5e" stroke-width="2" fill="none"/><path d="M461.03 202H460v-2h1.03z" fill="#5e5e5e"/><path d="M801.84 393.1l-4.64-14.28h9.27z" stroke="#5e5e5e" stroke-width="2" fill="#5e5e5e"/></g><g opacity=".55"><path d="M772 395.33v-4m0-7.95v-7.97m0-7.96v-7.96m0-7.97v-7.96m0-7.96v-7.97m0-7.95v-7.97m0-7.97v-7.95m0-7.97v-7.97m0-7.95v-7.97m0-7.96v-7.97m0-7.97V236l-.82-3.03-2.15-2.15L766 230h-3.9m-7.82 0h-7.8m-7.83 0h-7.8m-7.83 0h-7.8m-7.82 0h-7.82m-7.8 0h-7.82m-7.82 0h-7.8m-7.83 0h-7.8m-7.8 0h-7.83m-7.8 0h-7.82m-7.82 0h-7.8m-7.83 0h-7.8m-7.82 0h-7.82m-7.8 0h-7.82m-7.82 0h-7.8m-7.82 0h-7.82m-7.8 0h-7.83m-7.8 0h-3.92l-.23.1-.1.23-.1.24-.23.1h-5.3m-10.58 0h-5.3" stroke="#5e5e5e" stroke-width="2" fill="none"/><path d="M773 396.32h-2v-1.02h2z" fill="#5e5e5e"/><path d="M463.24 230.67l14.26-4.64v9.27z" stroke="#5e5e5e" stroke-width="2" fill="#5e5e5e"/></g><path d="M920 486c0-3.3 2.7-6 6-6h148c3.3 0 6 2.7 6 6v36.67c0 3.3-2.7 6-6 6H926c-3.3 0-6-2.7-6-6z" fill="none"/><use xlink:href="#a" transform="matrix(1,0,0,1,920,480) translate(11.259259259259267 29.833333333333332)"/><use xlink:href="#j" transform="matrix(1,0,0,1,920,480) translate(105.92592592592591 29.833333333333332)"/><path d="M410.74 560h-91.28c-10.64 0-19.46 9.76-19.46 21.44v117.12c0 11.84 8.82 21.44 19.46 21.44h101.08c10.78 0 19.46-9.76 19.46-21.44V591.68L410.74 560zm17.22 138.56c0 4.64-3.22 8.16-7.42 8.16H319.46c-4.2 0-7.42-3.52-7.42-8.16V581.44c0-4.64 3.22-8.16 7.42-8.16h85.4v25.6h23.1v99.68z" stroke="#000" stroke-opacity="0" fill="#2a3282"/><path d="M342.14 615.2v10.72c0 6.24-2.24 9.28-6.44 9.28v8.64c4.62 0 6.44 3.04 6.44 8.64v11.84c0 6.24 1.4 10.24 3.78 12.8 2.66 3.68 7.42 5.12 14.28 5.12v-9.12c-2.24 0-4.2-.64-5.6-2.08-.84-1.6-1.82-3.52-1.82-6.56v-9.76c.56-7.68-1.82-12.8-6.02-14.88 4.62-1.92 6.58-6.56 6.58-14.24v-10.24c0-5.76 2.24-8.32 6.86-8.32v-9.12c-6.86 0-11.62 1.6-14.28 4.64-2.38 1.92-3.78 6.56-3.78 12.64zM393.24 625.92v-11.2c0-6.24-1.4-10.24-3.64-13.28-2.8-2.56-7.56-4.16-14.42-4.16v9.28c4.62 0 6.86 2.56 6.86 8.16v9.76c0 8.16 2.38 13.28 6.58 15.36-4.62 2.08-6.58 6.56-6.58 14.4v10.24c0 3.04-.42 5.12-1.4 6.56-1.4 1.6-2.66 2.08-5.6 2.08v9.12c7 0 11.62-1.44 14.42-4.64 2.38-2.56 3.64-7.2 3.64-13.28v-11.2c0-6.08 2.38-9.12 6.58-9.12v-8.8c-4.2 0-6.44-3.04-6.44-9.28z" stroke="#000" stroke-opacity="0" fill="#2a3282"/><use xlink:href="#k" transform="matrix(1,0,0,1,270,729) translate(50.74074074074074 17.77777777777778)"/><path d="M441 641.28h33c3.3 0 6-2.7 6-6V524.16c0-3.3 2.7-6 6-6h175.5" stroke="#5e5e5e" stroke-width="2" fill="none"/><path d="M441.03 642.28H440v-2h1.03z" fill="#5e5e5e"/><path d="M676.76 518.16l-14.26 4.64v-9.27z" stroke="#5e5e5e" stroke-width="2" fill="#5e5e5e"/><path d="M441 441.28h33c3.3 0 6 2.7 6 6v64.88c0 3.32 2.7 6 6 6h175.5" stroke="#5e5e5e" stroke-width="2" fill="none"/><path d="M441.03 442.28H440v-2h1.03z" fill="#5e5e5e"/><path d="M676.76 518.16l-14.26 4.64v-9.27z" stroke="#5e5e5e" stroke-width="2" fill="#5e5e5e"/><defs><path fill="#333" d="M88-194c31-1 46 15 58 34l-1-101h50l1 261h-48c-2-10 0-23-3-31C134-8 116 4 84 4 32 4 16-41 15-95c0-56 19-97 73-99zm17 164c33 0 40-30 41-66 1-37-9-64-41-64s-38 30-39 65c0 43 13 65 39 65" id="l"/><path fill="#333" d="M110-194c64 0 96 36 96 99 0 64-35 99-97 99-61 0-95-36-95-99 0-62 34-99 96-99zm-1 164c35 0 45-28 45-65 0-40-10-65-43-65-34 0-45 26-45 65 0 36 10 65 43 65" id="m"/><path fill="#333" d="M190-63c-7 42-38 67-86 67-59 0-84-38-90-98-12-110 154-137 174-36l-49 2c-2-19-15-32-35-32-30 0-35 28-38 64-6 74 65 87 74 30" id="n"/><path fill="#333" d="M147 0L96-86 75-71V0H25v-261h50v150l67-79h53l-66 74L201 0h-54" id="o"/><path fill="#333" d="M185-48c-13 30-37 53-82 52C43 2 14-33 14-96s30-98 90-98c62 0 83 45 84 108H66c0 31 8 55 39 56 18 0 30-7 34-22zm-45-69c5-46-57-63-70-21-2 6-4 13-4 21h74" id="p"/><path fill="#333" d="M135-150c-39-12-60 13-60 57V0H25l-1-190h47c2 13-1 29 3 40 6-28 27-53 61-41v41" id="q"/><g id="a"><use transform="matrix(0.07407407407407407,0,0,0.07407407407407407,0,0)" xlink:href="#l"/><use transform="matrix(0.07407407407407407,0,0,0.07407407407407407,16.22222222222222,0)" xlink:href="#m"/><use transform="matrix(0.07407407407407407,0,0,0.07407407407407407,32.44444444444444,0)" xlink:href="#n"/><use transform="matrix(0.07407407407407407,0,0,0.07407407407407407,47.259259259259245,0)" xlink:href="#o"/><use transform="matrix(0.07407407407407407,0,0,0.07407407407407407,62.07407407407406,0)" xlink:href="#p"/><use transform="matrix(0.07407407407407407,0,0,0.07407407407407407,76.88888888888887,0)" xlink:href="#q"/></g><path fill="#333" d="M135-194c52 0 70 43 70 98 0 56-19 99-73 100-30 1-46-15-58-35L72 0H24l1-261h50v104c11-23 29-37 60-37zM114-30c31 0 40-27 40-66 0-37-7-63-39-63s-41 28-41 65c0 36 8 64 40 64" id="r"/><path fill="#333" d="M85 4C-2 5 27-109 22-190h50c7 57-23 150 33 157 60-5 35-97 40-157h50l1 190h-47c-2-12 1-28-3-38-12 25-28 42-61 42" id="s"/><path fill="#333" d="M25-224v-37h50v37H25zM25 0v-190h50V0H25" id="t"/><path fill="#333" d="M25 0v-261h50V0H25" id="u"/><g id="b"><use transform="matrix(0.07407407407407407,0,0,0.07407407407407407,0,0)" xlink:href="#r"/><use transform="matrix(0.07407407407407407,0,0,0.07407407407407407,16.22222222222222,0)" xlink:href="#s"/><use transform="matrix(0.07407407407407407,0,0,0.07407407407407407,32.44444444444444,0)" xlink:href="#t"/><use transform="matrix(0.07407407407407407,0,0,0.07407407407407407,39.85185185185185,0)" xlink:href="#u"/><use transform="matrix(0.07407407407407407,0,0,0.07407407407407407,47.259259259259245,0)" xlink:href="#l"/></g><path fill="#333" d="M185-189c-5-48-123-54-124 2 14 75 158 14 163 119 3 78-121 87-175 55-17-10-28-26-33-46l33-7c5 56 141 63 141-1 0-78-155-14-162-118-5-82 145-84 179-34 5 7 8 16 11 25" id="v"/><path fill="#333" d="M100-194c62-1 85 37 85 99 1 63-27 99-86 99S16-35 15-95c0-66 28-99 85-99zM99-20c44 1 53-31 53-75 0-43-8-75-51-75s-53 32-53 75 10 74 51 75" id="w"/><path fill="#333" d="M84 4C-5 8 30-112 23-190h32v120c0 31 7 50 39 49 72-2 45-101 50-169h31l1 190h-30c-1-10 1-25-2-33-11 22-28 36-60 37" id="x"/><path fill="#333" d="M114-163C36-179 61-72 57 0H25l-1-190h30c1 12-1 29 2 39 6-27 23-49 58-41v29" id="y"/><path fill="#333" d="M96-169c-40 0-48 33-48 73s9 75 48 75c24 0 41-14 43-38l32 2c-6 37-31 61-74 61-59 0-76-41-82-99-10-93 101-131 147-64 4 7 5 14 7 22l-32 3c-4-21-16-35-41-35" id="z"/><path fill="#333" d="M100-194c63 0 86 42 84 106H49c0 40 14 67 53 68 26 1 43-12 49-29l28 8c-11 28-37 45-77 45C44 4 14-33 15-96c1-61 26-98 85-98zm52 81c6-60-76-77-97-28-3 7-6 17-6 28h103" id="A"/><g id="c"><use transform="matrix(0.06172839506172839,0,0,0.06172839506172839,0,0)" xlink:href="#v"/><use transform="matrix(0.06172839506172839,0,0,0.06172839506172839,14.814814814814813,0)" xlink:href="#w"/><use transform="matrix(0.06172839506172839,0,0,0.06172839506172839,27.160493827160494,0)" xlink:href="#x"/><use transform="matrix(0.06172839506172839,0,0,0.06172839506172839,39.50617283950617,0)" xlink:href="#y"/><use transform="matrix(0.06172839506172839,0,0,0.06172839506172839,46.85185185185185,0)" xlink:href="#z"/><use transform="matrix(0.06172839506172839,0,0,0.06172839506172839,57.96296296296296,0)" xlink:href="#A"/></g><path fill="#333" d="M85-194c31 0 48 13 60 33l-1-100h32l1 261h-30c-2-10 0-23-3-31C134-8 116 4 85 4 32 4 16-35 15-94c0-66 23-100 70-100zm9 24c-40 0-46 34-46 75 0 40 6 74 45 74 42 0 51-32 51-76 0-42-9-74-50-73" id="B"/><g id="d"><use transform="matrix(0.06172839506172839,0,0,0.06172839506172839,0,0)" xlink:href="#z"/><use transform="matrix(0.06172839506172839,0,0,0.06172839506172839,11.11111111111111,0)" xlink:href="#w"/><use transform="matrix(0.06172839506172839,0,0,0.06172839506172839,23.45679012345679,0)" xlink:href="#B"/><use transform="matrix(0.06172839506172839,0,0,0.06172839506172839,35.80246913580247,0)" xlink:href="#A"/></g><path fill="#333" d="M212-179c-10-28-35-45-73-45-59 0-87 40-87 99 0 60 29 101 89 101 43 0 62-24 78-52l27 14C228-24 195 4 139 4 59 4 22-46 18-125c-6-104 99-153 187-111 19 9 31 26 39 46" id="C"/><path fill="#333" d="M117-194c89-4 53 116 60 194h-32v-121c0-31-8-49-39-48C34-167 62-67 57 0H25l-1-190h30c1 10-1 24 2 32 11-22 29-35 61-36" id="D"/><path fill="#333" d="M59-47c-2 24 18 29 38 22v24C64 9 27 4 27-40v-127H5v-23h24l9-43h21v43h35v23H59v120" id="E"/><path fill="#333" d="M141-36C126-15 110 5 73 4 37 3 15-17 15-53c-1-64 63-63 125-63 3-35-9-54-41-54-24 1-41 7-42 31l-33-3c5-37 33-52 76-52 45 0 72 20 72 64v82c-1 20 7 32 28 27v20c-31 9-61-2-59-35zM48-53c0 20 12 33 32 33 41-3 63-29 60-74-43 2-92-5-92 41" id="F"/><path fill="#333" d="M24-231v-30h32v30H24zM24 0v-190h32V0H24" id="G"/><g id="e"><use transform="matrix(0.06172839506172839,0,0,0.06172839506172839,0,0)" xlink:href="#C"/><use transform="matrix(0.06172839506172839,0,0,0.06172839506172839,15.987654320987653,0)" xlink:href="#w"/><use transform="matrix(0.06172839506172839,0,0,0.06172839506172839,28.333333333333332,0)" xlink:href="#D"/><use transform="matrix(0.06172839506172839,0,0,0.06172839506172839,40.67901234567901,0)" xlink:href="#E"/><use transform="matrix(0.06172839506172839,0,0,0.06172839506172839,46.851851851851855,0)" xlink:href="#F"/><use transform="matrix(0.06172839506172839,0,0,0.06172839506172839,59.19753086419753,0)" xlink:href="#G"/><use transform="matrix(0.06172839506172839,0,0,0.06172839506172839,64.07407407407408,0)" xlink:href="#D"/><use transform="matrix(0.06172839506172839,0,0,0.06172839506172839,76.41975308641976,0)" xlink:href="#A"/><use transform="matrix(0.06172839506172839,0,0,0.06172839506172839,88.76543209876544,0)" xlink:href="#y"/></g><path fill="#333" d="M33 0v-248h34V0H33" id="H"/><path fill="#333" d="M210-169c-67 3-38 105-44 169h-31v-121c0-29-5-50-35-48C34-165 62-65 56 0H25l-1-190h30c1 10-1 24 2 32 10-44 99-50 107 0 11-21 27-35 58-36 85-2 47 119 55 194h-31v-121c0-29-5-49-35-48" id="I"/><path fill="#333" d="M177-190C167-65 218 103 67 71c-23-6-38-20-44-43l32-5c15 47 100 32 89-28v-30C133-14 115 1 83 1 29 1 15-40 15-95c0-56 16-97 71-98 29-1 48 16 59 35 1-10 0-23 2-32h30zM94-22c36 0 50-32 50-73 0-42-14-75-50-75-39 0-46 34-46 75s6 73 46 73" id="J"/><g id="f"><use transform="matrix(0.06172839506172839,0,0,0.06172839506172839,0,0)" xlink:href="#H"/><use transform="matrix(0.06172839506172839,0,0,0.06172839506172839,6.172839506172839,0)" xlink:href="#I"/><use transform="matrix(0.06172839506172839,0,0,0.06172839506172839,24.629629629629626,0)" xlink:href="#F"/><use transform="matrix(0.06172839506172839,0,0,0.06172839506172839,36.9753086419753,0)" xlink:href="#J"/><use transform="matrix(0.06172839506172839,0,0,0.06172839506172839,49.32098765432098,0)" xlink:href="#A"/></g><g id="g"><use transform="matrix(0.06172839506172839,0,0,0.06172839506172839,0,0)" xlink:href="#C"/><use transform="matrix(0.06172839506172839,0,0,0.06172839506172839,15.987654320987653,0)" xlink:href="#w"/><use transform="matrix(0.06172839506172839,0,0,0.06172839506172839,28.333333333333332,0)" xlink:href="#D"/><use transform="matrix(0.06172839506172839,0,0,0.06172839506172839,40.67901234567901,0)" xlink:href="#E"/><use transform="matrix(0.06172839506172839,0,0,0.06172839506172839,46.851851851851855,0)" xlink:href="#F"/><use transform="matrix(0.06172839506172839,0,0,0.06172839506172839,59.19753086419753,0)" xlink:href="#G"/><use transform="matrix(0.06172839506172839,0,0,0.06172839506172839,64.07407407407408,0)" xlink:href="#D"/><use transform="matrix(0.06172839506172839,0,0,0.06172839506172839,76.41975308641976,0)" xlink:href="#A"/><use transform="matrix(0.06172839506172839,0,0,0.06172839506172839,88.76543209876544,0)" xlink:href="#y"/></g><path fill="#333" d="M233-177c-1 41-23 64-60 70L243 0h-38l-65-103H63V0H30v-248c88 3 205-21 203 71zM63-129c60-2 137 13 137-47 0-61-80-42-137-45v92" id="K"/><path fill="#333" d="M135-143c-3-34-86-38-87 0 15 53 115 12 119 90S17 21 10-45l28-5c4 36 97 45 98 0-10-56-113-15-118-90-4-57 82-63 122-42 12 7 21 19 24 35" id="L"/><g id="h"><use transform="matrix(0.06172839506172839,0,0,0.06172839506172839,0,0)" xlink:href="#K"/><use transform="matrix(0.06172839506172839,0,0,0.06172839506172839,15.987654320987653,0)" xlink:href="#A"/><use transform="matrix(0.06172839506172839,0,0,0.06172839506172839,28.333333333333332,0)" xlink:href="#J"/><use transform="matrix(0.06172839506172839,0,0,0.06172839506172839,40.67901234567901,0)" xlink:href="#G"/><use transform="matrix(0.06172839506172839,0,0,0.06172839506172839,45.55555555555556,0)" xlink:href="#L"/><use transform="matrix(0.06172839506172839,0,0,0.06172839506172839,56.66666666666667,0)" xlink:href="#E"/><use transform="matrix(0.06172839506172839,0,0,0.06172839506172839,62.83950617283951,0)" xlink:href="#y"/><use transform="matrix(0.06172839506172839,0,0,0.06172839506172839,70.18518518518519,0)" xlink:href="#G"/><use transform="matrix(0.06172839506172839,0,0,0.06172839506172839,75.06172839506173,0)" xlink:href="#A"/><use transform="matrix(0.06172839506172839,0,0,0.06172839506172839,87.40740740740742,0)" xlink:href="#L"/></g><g id="i"><use transform="matrix(0.06172839506172839,0,0,0.06172839506172839,0,0)" xlink:href="#C"/><use transform="matrix(0.06172839506172839,0,0,0.06172839506172839,15.987654320987653,0)" xlink:href="#w"/><use transform="matrix(0.06172839506172839,0,0,0.06172839506172839,28.333333333333332,0)" xlink:href="#D"/><use transform="matrix(0.06172839506172839,0,0,0.06172839506172839,40.67901234567901,0)" xlink:href="#E"/><use transform="matrix(0.06172839506172839,0,0,0.06172839506172839,46.851851851851855,0)" xlink:href="#F"/><use transform="matrix(0.06172839506172839,0,0,0.06172839506172839,59.19753086419753,0)" xlink:href="#G"/><use transform="matrix(0.06172839506172839,0,0,0.06172839506172839,64.07407407407408,0)" xlink:href="#D"/><use transform="matrix(0.06172839506172839,0,0,0.06172839506172839,76.41975308641976,0)" xlink:href="#A"/><use transform="matrix(0.06172839506172839,0,0,0.06172839506172839,88.76543209876544,0)" xlink:href="#y"/></g><path fill="#333" d="M135-194c87-1 58 113 63 194h-50c-7-57 23-157-34-157-59 0-34 97-39 157H25l-1-190h47c2 12-1 28 3 38 12-26 28-41 61-42" id="M"/><g id="j"><use transform="matrix(0.07407407407407407,0,0,0.07407407407407407,0,0)" xlink:href="#q"/><use transform="matrix(0.07407407407407407,0,0,0.07407407407407407,10.37037037037037,0)" xlink:href="#s"/><use transform="matrix(0.07407407407407407,0,0,0.07407407407407407,26.59259259259259,0)" xlink:href="#M"/></g><path fill="#333" d="M30-248c118-7 216 8 213 122C240-48 200 0 122 0H30v-248zM63-27c89 8 146-16 146-99s-60-101-146-95v194" id="N"/><path fill="#333" d="M143 0L79-87 56-68V0H24v-261h32v163l83-92h37l-77 82L181 0h-38" id="O"/><path fill="#333" d="M101-234c-31-9-42 10-38 44h38v23H63V0H32v-167H5v-23h27c-7-52 17-82 69-68v24" id="P"/><path fill="#333" d="M24 0v-261h32V0H24" id="Q"/><g id="k"><use transform="matrix(0.06172839506172839,0,0,0.06172839506172839,0,0)" xlink:href="#N"/><use transform="matrix(0.06172839506172839,0,0,0.06172839506172839,15.987654320987653,0)" xlink:href="#w"/><use transform="matrix(0.06172839506172839,0,0,0.06172839506172839,28.333333333333332,0)" xlink:href="#z"/><use transform="matrix(0.06172839506172839,0,0,0.06172839506172839,39.44444444444444,0)" xlink:href="#O"/><use transform="matrix(0.06172839506172839,0,0,0.06172839506172839,50.55555555555556,0)" xlink:href="#A"/><use transform="matrix(0.06172839506172839,0,0,0.06172839506172839,62.901234567901234,0)" xlink:href="#y"/><use transform="matrix(0.06172839506172839,0,0,0.06172839506172839,70.24691358024691,0)" xlink:href="#P"/><use transform="matrix(0.06172839506172839,0,0,0.06172839506172839,76.41975308641975,0)" xlink:href="#G"/><use transform="matrix(0.06172839506172839,0,0,0.06172839506172839,81.29629629629629,0)" xlink:href="#Q"/><use transform="matrix(0.06172839506172839,0,0,0.06172839506172839,86.17283950617283,0)" xlink:href="#A"/></g></defs></g></svg>